{
    "accessors" : [
        {
            "bufferView" : 0,
            "componentType" : 5123,
            "count" : 5043,
            "max" : [
                1872
            ],
            "min" : [
                0
            ],
            "type" : "SCALAR"
        },
        {
            "bufferView" : 1,
            "componentType" : 5126,
            "count" : 1873,
            "max" : [
                0.03994092345237732,
                0.23953545093536377,
                1.0141592025756836
            ],
            "min" : [
                -0.040079265832901,
                -0.3381040096282959,
                -0.8448729515075684
            ],
            "type" : "VEC3"
        },
        {
            "bufferView" : 2,
            "componentType" : 5126,
            "count" : 1873,
            "max" : [
                1.0,
                1.0,
                1.0
            ],
            "min" : [
                -1.0,
                -1.0,
                -1.0
            ],
            "type" : "VEC3"
        },
        {
            "bufferView" : 3,
            "componentType" : 5126,
            "count" : 1873,
            "max" : [
                1.0,
                1.0,
                0.9999999403953552,
                1.0
            ],
            "min" : [
                -0.9999990463256836,
                -1.0,
                -0.9999999403953552,
                -1.0
            ],
            "type" : "VEC4"
        },
        {
            "bufferView" : 4,
            "componentType" : 5126,
            "count" : 1873,
            "max" : [
                0.9887400269508362,
                1.0
            ],
            "min" : [
                0.0,
                0.011246263980865479
            ],
            "type" : "VEC2"
        }
    ],
    "asset" : {
        "generator" : "Khronos Blender glTF 2.0 exporter",
        "version" : "2.0"
    },
    "bufferViews" : [
        {
            "buffer" : 0,
            "byteLength" : 10086,
            "byteOffset" : 0,
            "target" : 34963
        },
        {
            "buffer" : 0,
            "byteLength" : 22476,
            "byteOffset" : 10088,
            "target" : 34962
        },
        {
            "buffer" : 0,
            "byteLength" : 22476,
            "byteOffset" : 32564,
            "target" : 34962
        },
        {
            "buffer" : 0,
            "byteLength" : 29968,
            "byteOffset" : 55040,
            "target" : 34962
        },
        {
            "buffer" : 0,
            "byteLength" : 14984,
            "byteOffset" : 85008,
            "target" : 34962
        }
    ],
    "buffers" : [
        {
            "byteLength" : 99992,
            "uri" : "scar.bin"
        }
    ],
    "images" : [
        {
            "mimeType" : "image/jpeg",
            "name" : "SCAR-L",
            "uri" : "data:image/jpeg;base64,"
        }
    ],
    "materials" : [
        {
            "name" : "Material.007",
            "pbrMetallicRoughness" : {
                "baseColorFactor" : [
                    0.6400000190734865,
                    0.6400000190734865,
                    0.6400000190734865,
                    1.0
                ],
                "baseColorTexture" : {
                    "index" : 0
                },
                "metallicFactor" : 0.0
            }
        }
    ],
    "meshes" : [
        {
            "name" : "Plane.006",
            "primitives" : [
                {
                    "attributes" : {
                        "NORMAL" : 2,
                        "POSITION" : 1,
                        "TANGENT" : 3,
                        "TEXCOORD_0" : 4
                    },
                    "indices" : 0,
                    "material" : 0
                }
            ]
        }
    ],
    "nodes" : [
        {
            "mesh" : 0,
            "name" : "Scar"
        }
    ],
    "samplers" : [
        {}
    ],
    "scene" : 0,
    "scenes" : [
        {
            "name" : "Scene",
            "nodes" : [
                0
            ]
        }
    ],
    "textures" : [
        {
            "sampler" : 0,
            "source" : 0
        }
    ]
}
