{
    "accessors" : [
        {
            "bufferView" : 0,
            "componentType" : 5123,
            "count" : 1542,
            "max" : [
                1081
            ],
            "min" : [
                0
            ],
            "type" : "SCALAR"
        },
        {
            "bufferView" : 1,
            "componentType" : 5126,
            "count" : 1082,
            "max" : [
                0.018356917425990105,
                0.09413667023181915,
                0.1857447326183319
            ],
            "min" : [
                -0.019143106415867805,
                -0.18714839220046997,
                -0.2343757450580597
            ],
            "type" : "VEC3"
        },
        {
            "bufferView" : 2,
            "componentType" : 5126,
            "count" : 1082,
            "max" : [
                1.0,
                1.0,
                1.0
            ],
            "min" : [
                -1.0,
                -1.0,
                -1.0
            ],
            "type" : "VEC3"
        },
        {
            "bufferView" : 3,
            "componentType" : 5126,
            "count" : 1082,
            "max" : [
                1.0,
                0.9999995231628418,
                0.9999953508377075,
                1.0
            ],
            "min" : [
                -0.9999953508377075,
                -0.9999995231628418,
                -0.9999059438705444,
                -1.0
            ],
            "type" : "VEC4"
        },
        {
            "bufferView" : 4,
            "componentType" : 5126,
            "count" : 1082,
            "max" : [
                0.9895273447036743,
                1.0
            ],
            "min" : [
                0.0,
                0.010378360748291016
            ],
            "type" : "VEC2"
        }
    ],
    "asset" : {
        "generator" : "Khronos Blender glTF 2.0 exporter",
        "version" : "2.0"
    },
    "bufferViews" : [
        {
            "buffer" : 0,
            "byteLength" : 3084,
            "byteOffset" : 0,
            "target" : 34963
        },
        {
            "buffer" : 0,
            "byteLength" : 12984,
            "byteOffset" : 3084,
            "target" : 34962
        },
        {
            "buffer" : 0,
            "byteLength" : 12984,
            "byteOffset" : 16068,
            "target" : 34962
        },
        {
            "buffer" : 0,
            "byteLength" : 17312,
            "byteOffset" : 29052,
            "target" : 34962
        },
        {
            "buffer" : 0,
            "byteLength" : 8656,
            "byteOffset" : 46364,
            "target" : 34962
        }
    ],
    "buffers" : [
        {
            "byteLength" : 55020,
            "uri" : "usp.bin"
        }
    ],
    "images" : [
        {
            "mimeType" : "image/jpeg",
            "name" : "USP",
            "uri" : "data:image/jpeg;base64,"
        }
    ],
    "materials" : [
        {
            "name" : "Material.010",
            "pbrMetallicRoughness" : {
                "baseColorFactor" : [
                    0.6400000190734865,
                    0.6400000190734865,
                    0.6400000190734865,
                    1.0
                ],
                "baseColorTexture" : {
                    "index" : 0
                },
                "metallicFactor" : 0.0
            }
        }
    ],
    "meshes" : [
        {
            "name" : "Plane.004",
            "primitives" : [
                {
                    "attributes" : {
                        "NORMAL" : 2,
                        "POSITION" : 1,
                        "TANGENT" : 3,
                        "TEXCOORD_0" : 4
                    },
                    "indices" : 0,
                    "material" : 0
                }
            ]
        }
    ],
    "nodes" : [
        {
            "mesh" : 0,
            "name" : "USP-CT"
        }
    ],
    "samplers" : [
        {}
    ],
    "scene" : 0,
    "scenes" : [
        {
            "name" : "Scene",
            "nodes" : [
                0
            ]
        }
    ],
    "textures" : [
        {
            "sampler" : 0,
            "source" : 0
        }
    ]
}
